<svg width="152" height="153" viewBox="0 0 152 153" fill="none" xmlns="http://www.w3.org/2000/svg">
<path d="M138.291 142.68L51.3441 143.949C27.8745 144.291 8.57109 125.543 8.22871 102.073C7.88634 78.6035 26.6347 59.3001 50.1043 58.9577L63.1468 58.7675C107.024 58.1276 143.113 93.1785 143.753 137.056C143.798 140.117 141.352 142.636 138.291 142.68Z" stroke="#7E68CA" stroke-width="15"/>
<path d="M143.5 136.956V50C143.5 26.5279 124.472 7.5 101 7.5C77.5279 7.5 58.5 26.5279 58.5 50V63.0439C58.5003 106.926 94.0738 142.5 137.956 142.5C141.018 142.5 143.5 140.018 143.5 136.956Z" stroke="#B4CA68" stroke-width="15"/>
</svg>
