<svg width="152" height="66" viewBox="0 0 152 66" fill="none" xmlns="http://www.w3.org/2000/svg">
<path d="M61.3623 9.97143C57.7636 6.18083 60.4519 0 65.6786 0H126.97C140.793 0 151.999 11.2062 151.999 25.0298C151.999 53.3668 118.3 67.7659 98.2461 47.7447C97.8309 47.3302 97.4157 46.9153 97.0004 46.5C81.4531 30.9527 69.1478 18.1723 61.3623 9.97143Z" fill="white"/>
<path d="M90.6368 55.0911C94.2354 58.8817 91.5471 65.0625 86.3204 65.0625H25.0294C11.2058 65.0625 -0.00037384 53.8563 -0.00037384 40.0327C-0.00037384 11.6957 33.6995 -2.70337 53.753 17.3178C54.1681 17.7323 54.5833 18.1472 54.9987 18.5625C70.5459 34.1098 82.8512 46.8902 90.6368 55.0911Z" fill="white"/>
</svg>
